<svg width="336" height="256" viewBox="0 0 336 256" fill="none" xmlns="http://www.w3.org/2000/svg">
<rect width="336" height="256" fill="#F5F5F5"/>
<g clip-path="url(#clip0_0_1)">
<path d="M223.68 66.15L135.68 18C133.329 16.7008 130.686 16.0193 128 16.0193C125.314 16.0193 122.671 16.7008 120.32 18L32.32 66.17C29.8069 67.545 27.709 69.5696 26.2455 72.0322C24.782 74.4949 24.0065 77.3053 24 80.17V175.81C24.0065 178.675 24.782 181.485 26.2455 183.948C27.709 186.41 29.8069 188.435 32.32 189.81L120.32 237.98C122.671 239.279 125.314 239.961 128 239.961C130.686 239.961 133.329 239.279 135.68 237.98L223.68 189.81C226.193 188.435 228.291 186.41 229.754 183.948C231.218 181.485 231.993 178.675 232 175.81V80.18C231.999 77.3102 231.226 74.4935 229.762 72.0252C228.298 69.5568 226.198 67.5275 223.68 66.15ZM128 120L47.65 76L128 32L208.35 76L128 120ZM136 219.64V133.83L216 90.05V175.81L136 219.64Z" fill="black"/>
<path d="M176.936 131.714C177.026 131.232 177.282 130.797 177.659 130.484C178.036 130.171 178.51 130 179 130C179.49 130 179.964 130.171 180.341 130.484C180.718 130.797 180.974 131.232 181.064 131.714L183.27 143.383C183.427 144.213 183.83 144.976 184.427 145.573C185.024 146.17 185.787 146.573 186.617 146.73L198.286 148.936C198.768 149.026 199.203 149.282 199.516 149.659C199.829 150.036 200 150.51 200 151C200 151.49 199.829 151.964 199.516 152.341C199.203 152.718 198.768 152.974 198.286 153.064L186.617 155.27C185.787 155.427 185.024 155.83 184.427 156.427C183.83 157.024 183.427 157.787 183.27 158.617L181.064 170.286C180.974 170.768 180.718 171.203 180.341 171.516C179.964 171.829 179.49 172 179 172C178.51 172 178.036 171.829 177.659 171.516C177.282 171.203 177.026 170.768 176.936 170.286L174.73 158.617C174.573 157.787 174.17 157.024 173.573 156.427C172.976 155.83 172.213 155.427 171.383 155.27L159.714 153.064C159.232 152.974 158.797 152.718 158.484 152.341C158.171 151.964 158 151.49 158 151C158 150.51 158.171 150.036 158.484 149.659C158.797 149.282 159.232 149.026 159.714 148.936L171.383 146.73C172.213 146.573 172.976 146.17 173.573 145.573C174.17 144.976 174.573 144.213 174.73 143.383L176.936 131.714Z" fill="black" stroke="black" stroke-width="2" stroke-linecap="round" stroke-linejoin="round"/>
<path d="M125.994 53.0813C126.103 52.4965 126.414 51.9683 126.871 51.5882C127.329 51.2081 127.905 51 128.5 51C129.095 51 129.671 51.2081 130.129 51.5882C130.586 51.9683 130.897 52.4965 131.006 53.0813L133.685 67.2508C133.876 68.2582 134.365 69.1848 135.09 69.9098C135.815 70.6347 136.742 71.1242 137.749 71.3145L151.919 73.994C152.504 74.1032 153.032 74.4135 153.412 74.8712C153.792 75.3289 154 75.9051 154 76.5C154 77.0949 153.792 77.6711 153.412 78.1288C153.032 78.5865 152.504 78.8968 151.919 79.0061L137.749 81.6855C136.742 81.8758 135.815 82.3653 135.09 83.0903C134.365 83.8152 133.876 84.7418 133.685 85.7492L131.006 99.9187C130.897 100.504 130.586 101.032 130.129 101.412C129.671 101.792 129.095 102 128.5 102C127.905 102 127.329 101.792 126.871 101.412C126.414 101.032 126.103 100.504 125.994 99.9187L123.315 85.7492C123.124 84.7418 122.635 83.8152 121.91 83.0903C121.185 82.3653 120.258 81.8758 119.251 81.6855L105.081 79.0061C104.496 78.8968 103.968 78.5865 103.588 78.1288C103.208 77.6711 103 77.0949 103 76.5C103 75.9051 103.208 75.3289 103.588 74.8712C103.968 74.4135 104.496 74.1032 105.081 73.994L119.251 71.3145C120.258 71.1242 121.185 70.6347 121.91 69.9098C122.635 69.1848 123.124 68.2582 123.315 67.2508L125.994 53.0813Z" fill="black" stroke="black" stroke-width="2" stroke-linecap="round" stroke-linejoin="round"/>
</g>
<defs>
<clipPath id="clip0_0_1">
<rect width="256" height="256" fill="white"/>
</clipPath>
</defs>
</svg>
