<svg width="256" height="256" viewBox="0 0 256 256" fill="none" xmlns="http://www.w3.org/2000/svg">
<path d="M199.68 50.15L111.68 2C109.329 0.700773 106.686 0.0193481 104 0.0193481C101.314 0.0193481 98.6709 0.700773 96.32 2L8.32 50.17C5.80686 51.545 3.70897 53.5696 2.24548 56.0322C0.781998 58.4949 0.00647454 61.3053 0 64.17V159.81C0.00647454 162.675 0.781998 165.485 2.24548 167.948C3.70897 170.41 5.80686 172.435 8.32 173.81L96.32 221.98C98.6709 223.279 101.314 223.961 104 223.961C106.686 223.961 109.329 223.279 111.68 221.98L199.68 173.81C202.193 172.435 204.291 170.41 205.754 167.948C207.218 165.485 207.993 162.675 208 159.81V64.18C207.999 61.3102 207.226 58.4935 205.762 56.0252C204.298 53.5568 202.198 51.5275 199.68 50.15ZM104 104L23.65 60L104 16L184.35 60L104 104ZM112 203.64V117.83L192 74.05V159.81L112 203.64Z" fill="#18181b"/>
<path d="M152.936 115.714C153.026 115.232 153.282 114.797 153.659 114.484C154.036 114.171 154.51 114 155 114C155.49 114 155.964 114.171 156.341 114.484C156.718 114.797 156.974 115.232 157.064 115.714L159.27 127.383C159.427 128.213 159.83 128.976 160.427 129.573C161.024 130.17 161.787 130.573 162.617 130.73L174.286 132.936C174.768 133.026 175.203 133.282 175.516 133.659C175.829 134.036 176 134.51 176 135C176 135.49 175.829 135.964 175.516 136.341C175.203 136.718 174.768 136.974 174.286 137.064L162.617 139.27C161.787 139.427 161.024 139.83 160.427 140.427C159.83 141.024 159.427 141.787 159.27 142.617L157.064 154.286C156.974 154.768 156.718 155.203 156.341 155.516C155.964 155.829 155.49 156 155 156C154.51 156 154.036 155.829 153.659 155.516C153.282 155.203 153.026 154.768 152.936 154.286L150.73 142.617C150.573 141.787 150.17 141.024 149.573 140.427C148.976 139.83 148.213 139.427 147.383 139.27L135.714 137.064C135.232 136.974 134.797 136.718 134.484 136.341C134.171 135.964 134 135.49 134 135C134 134.51 134.171 134.036 134.484 133.659C134.797 133.282 135.232 133.026 135.714 132.936L147.383 130.73C148.213 130.573 148.976 130.17 149.573 129.573C150.17 128.976 150.573 128.213 150.73 127.383L152.936 115.714Z" fill="#18181b" stroke="#18181b" stroke-width="2" stroke-linecap="round" stroke-linejoin="round"/>
<path d="M101.994 37.0813C102.103 36.4965 102.414 35.9683 102.871 35.5882C103.329 35.2081 103.905 35 104.5 35C105.095 35 105.671 35.2081 106.129 35.5882C106.586 35.9683 106.897 36.4965 107.006 37.0813L109.685 51.2508C109.876 52.2582 110.365 53.1848 111.09 53.9098C111.815 54.6347 112.742 55.1242 113.749 55.3145L127.919 57.994C128.504 58.1032 129.032 58.4135 129.412 58.8712C129.792 59.3289 130 59.9051 130 60.5C130 61.0949 129.792 61.6711 129.412 62.1288C129.032 62.5865 128.504 62.8968 127.919 63.0061L113.749 65.6855C112.742 65.8758 111.815 66.3653 111.09 67.0903C110.365 67.8152 109.876 68.7418 109.685 69.7492L107.006 83.9187C106.897 84.5035 106.586 85.0317 106.129 85.4118C105.671 85.7919 105.095 86 104.5 86C103.905 86 103.329 85.7919 102.871 85.4118C102.414 85.0317 102.103 84.5035 101.994 83.9187L99.3145 69.7492C99.1242 68.7418 98.6347 67.8152 97.9098 67.0903C97.1848 66.3653 96.2582 65.8758 95.2508 65.6855L81.0813 63.0061C80.4965 62.8968 79.9683 62.5865 79.5882 62.1288C79.2081 61.6711 79 61.0949 79 60.5C79 59.9051 79.2081 59.3289 79.5882 58.8712C79.9683 58.4135 80.4965 58.1032 81.0813 57.994L95.2508 55.3145C96.2582 55.1242 97.1848 54.6347 97.9098 53.9098C98.6347 53.1848 99.1242 52.2582 99.3145 51.2508L101.994 37.0813Z" fill="#18181b" stroke="#18181b" stroke-width="2" stroke-linecap="round" stroke-linejoin="round"/>
</svg>
